<svg width="600" height="400" xmlns="http://www.w3.org/2000/svg"><g fill="none" fill-rule="evenodd"><path fill="#F6F9FC" d="M0 0h600v400H0z"/><rect fill="#FFF" opacity=".341" x="495" y="267" width="45" height="3" rx="1.5"/><path d="M370.246 210.758l-68.986 37.37-70.364-37.37c-2.618-1.475-6.061-.403-7.435 2.142-1.516 2.546-.416 5.895 2.202 7.234l72.978 38.844a5.49 5.49 0 005.371 0l71.604-38.844c2.619-1.474 3.58-4.688 2.07-7.234-1.516-2.677-4.822-3.617-7.44-2.142zm-130.815-24.78l61.829-34.023 68.848 38.712c2.619 1.47 6.062.535 7.577-2.01 1.512-2.546.55-5.895-2.069-7.366l-71.604-40.187c-1.653-.935-3.718-.935-5.508 0l-72.978 40.187c-3.718 2.006-3.718 7.23 0 9.376l72.978 40.182c2.619 1.471 6.062.536 7.577-2.01 1.511-2.546.55-5.895-2.069-7.366l-64.58-35.494zm-28.364 28.13v-26.79c-.554-6.163 2.34-12.458 8.672-15.94l72.982-40.185c5.37-2.946 11.845-2.946 17.078.135l71.604 40.183c5.92 3.35 9.088 9.644 8.535 15.807v26.79c.553 6.294-2.752 12.72-8.814 15.938L309.52 268.89a17.5 17.5 0 01-16.661 0l-72.979-38.844c-6.061-3.217-9.226-9.512-8.813-15.939z" fill="#FFF"/></g></svg>